<?xml version="1.0" standalone="no"?>
<!DOCTYPE svg PUBLIC "-//W3C//DTD SVG 20010904//EN"
 "http://www.w3.org/TR/2001/REC-SVG-20010904/DTD/svg10.dtd">
<svg version="1.0" xmlns="http://www.w3.org/2000/svg"
 width="569.000000pt" height="569.000000pt" viewBox="0 0 569.000000 569.000000"
 preserveAspectRatio="xMidYMid meet">
<metadata>
Created by potrace 1.11, written by Peter Selinger 2001-2013
</metadata>
<g transform="translate(0.000000,569.000000) scale(0.100000,-0.100000)"
fill="#000000" stroke="none">
<path d="M4685 5679 c-45 -7 -112 -17 -172 -24 -12 -2 -34 -6 -50 -9 -15 -3
-52 -8 -82 -11 -30 -4 -61 -8 -70 -10 -9 -1 -41 -6 -71 -10 -30 -3 -68 -9 -85
-11 -35 -6 -61 -10 -135 -19 -30 -3 -62 -8 -70 -10 -8 -2 -40 -7 -70 -10 -30
-3 -62 -8 -70 -10 -8 -2 -40 -7 -70 -10 -30 -3 -62 -8 -70 -10 -8 -3 -35 -7
-60 -9 -25 -3 -110 -14 -190 -26 -80 -11 -163 -23 -185 -26 -22 -3 -47 -7 -55
-9 -8 -2 -42 -7 -75 -10 -33 -3 -67 -8 -75 -10 -8 -2 -37 -6 -65 -10 -27 -3
-77 -10 -110 -15 -33 -5 -82 -11 -110 -15 -27 -3 -95 -13 -150 -21 -55 -8
-115 -17 -135 -19 -54 -7 -122 -16 -150 -21 -14 -2 -77 -11 -140 -20 -63 -8
-128 -17 -145 -20 -16 -2 -48 -6 -70 -9 -22 -3 -51 -8 -65 -10 -14 -2 -45 -7
-70 -10 -25 -4 -65 -11 -90 -17 -25 -5 -56 -12 -70 -14 -56 -11 -211 -70 -300
-114 -423 -212 -755 -602 -914 -1072 -25 -74 -48 -149 -51 -168 -3 -19 -8 -43
-11 -53 -5 -17 -10 -47 -20 -117 -31 -233 -23 -549 18 -705 5 -22 12 -50 14
-63 11 -60 67 -192 87 -205 25 -16 101 -58 197 -109 36 -19 81 -44 100 -55 19
-11 80 -43 135 -73 55 -29 106 -57 113 -63 13 -10 1 30 -33 108 -18 42 -62
246 -70 325 -17 170 -8 449 20 590 3 14 7 34 9 45 37 191 133 442 223 583 18
29 33 55 33 57 0 7 62 95 119 170 58 76 228 247 306 306 196 150 426 264 617
305 69 15 169 33 213 39 28 3 64 8 80 10 41 7 381 54 430 61 22 3 67 9 100 14
33 5 80 12 105 15 25 3 56 8 70 10 14 2 45 7 70 10 25 4 59 8 75 11 17 3 48 7
70 10 22 2 51 6 64 9 13 2 49 7 80 11 31 3 65 8 76 10 10 2 37 6 60 9 22 4 51
8 65 10 14 3 48 7 75 10 28 3 77 10 110 15 33 5 80 12 105 15 25 3 56 7 70 10
14 3 48 7 75 10 28 3 64 8 80 11 17 3 42 7 58 9 126 17 187 26 208 30 13 3 44
7 69 10 38 4 94 11 220 30 14 2 77 11 140 20 63 9 126 18 140 20 14 2 48 7 75
11 68 8 73 14 34 34 -38 19 -105 56 -192 106 -32 19 -59 34 -61 34 -1 0 -57
31 -124 69 -66 38 -129 71 -139 74 -10 2 -40 1 -68 -4z"/>
<path d="M5225 5344 c-38 -6 -92 -15 -120 -18 -27 -4 -79 -11 -115 -16 -36 -5
-85 -12 -110 -15 -25 -3 -56 -7 -70 -10 -14 -2 -47 -7 -75 -10 -27 -3 -61 -8
-75 -10 -14 -3 -41 -7 -60 -9 -57 -7 -193 -27 -225 -32 -40 -7 -79 -12 -140
-19 -27 -3 -57 -8 -65 -10 -8 -2 -39 -7 -69 -10 -30 -4 -61 -8 -70 -10 -25 -4
-92 -14 -141 -20 -25 -3 -72 -10 -105 -15 -33 -5 -114 -17 -180 -25 -66 -9
-131 -18 -145 -21 -22 -3 -199 -28 -275 -38 -70 -10 -131 -18 -148 -22 -16 -3
-211 -30 -277 -39 -48 -6 -125 -17 -150 -21 -14 -2 -45 -6 -70 -9 -249 -32
-438 -86 -600 -173 -88 -47 -276 -173 -325 -218 -22 -20 -56 -51 -75 -69 -192
-177 -359 -427 -464 -694 -33 -84 -89 -279 -100 -349 -2 -15 -8 -47 -11 -72
-12 -76 -14 -109 -15 -295 -2 -180 2 -239 21 -349 13 -75 52 -207 79 -271 l21
-49 27 49 c104 189 314 436 482 565 25 19 50 38 55 43 240 185 525 300 850
342 69 9 104 13 223 30 78 12 105 15 150 20 26 3 54 8 62 10 15 5 47 9 145 20
28 3 57 8 65 10 8 2 38 7 65 10 28 3 59 7 70 9 19 3 84 13 150 21 17 3 77 11
135 19 58 9 123 18 145 21 156 20 217 29 315 50 71 14 207 63 300 106 103 49
292 169 360 229 246 217 409 442 532 730 35 82 83 231 93 292 3 15 7 43 10 61
3 17 8 39 10 47 2 8 7 47 10 85 3 39 8 91 11 117 6 55 13 53 -111 32z"/>
<path d="M342 2127 c0 -303 3 -579 8 -612 16 -124 22 -152 46 -245 72 -268
227 -520 420 -681 110 -91 155 -119 399 -249 44 -23 104 -55 133 -71 117 -65
166 -89 142 -72 -54 39 -157 128 -199 172 -166 174 -301 441 -346 686 -26 137
-28 196 -29 750 -1 303 -4 555 -8 561 -6 9 -248 144 -505 281 l-61 33 0 -553z"/>
<path d="M940 2078 c-2 -656 -2 -726 4 -817 20 -275 120 -552 275 -758 66 -88
94 -119 197 -213 151 -139 362 -238 584 -276 86 -15 460 -7 489 10 3 2 31 7
61 10 30 4 66 8 80 10 14 3 48 7 75 11 28 3 57 8 65 10 8 2 42 7 75 11 33 3
69 8 80 10 11 1 40 5 65 9 25 3 56 8 70 10 21 3 104 15 210 30 14 2 50 7 80
10 30 4 62 9 71 10 9 2 40 7 70 10 65 9 50 7 279 39 102 15 196 28 210 31 14
2 43 6 66 9 22 2 56 7 75 10 19 3 50 8 69 10 75 10 339 47 510 72 63 9 126 17
140 19 14 1 43 5 65 9 22 4 58 9 80 11 22 3 56 7 75 10 42 7 89 13 150 21 124
17 125 17 124 49 0 17 -4 50 -7 75 -46 309 -109 485 -244 688 -63 95 -206 246
-293 310 -46 33 -355 212 -367 212 -2 0 -38 20 -81 44 -42 23 -117 65 -167 91
-49 26 -94 51 -100 55 -25 18 -166 74 -239 95 -169 48 -349 61 -521 38 -49 -7
-112 -15 -140 -18 -27 -4 -63 -9 -80 -11 -16 -3 -43 -7 -60 -10 -16 -2 -46 -6
-65 -8 -19 -3 -55 -8 -80 -11 -25 -3 -56 -8 -70 -10 -14 -2 -45 -7 -70 -10
-25 -3 -72 -10 -105 -15 -33 -5 -80 -12 -105 -15 -25 -3 -56 -7 -70 -10 -14
-2 -45 -7 -70 -10 -25 -3 -54 -7 -65 -9 -22 -4 -81 -12 -160 -22 -27 -3 -57
-8 -66 -9 -9 -2 -40 -6 -69 -10 -29 -4 -60 -8 -69 -10 -9 -2 -44 -6 -76 -10
-33 -4 -69 -10 -80 -12 -39 -9 -313 -11 -359 -2 -26 5 -68 11 -94 15 -59 8
-73 15 -125 67 -96 96 -169 199 -244 342 l-52 100 -1 -297z"/>
</g>
</svg>
